<svg width="168" height="58" viewBox="0 0 168 58" fill="none" xmlns="http://www.w3.org/2000/svg">
<rect y="0.789062" width="18.0984" height="56.0272" rx="9.04918" fill="#6236FF"/>
<rect x="2.36084" y="13.4148" width="12.6259" height="38.5574" rx="6.31293" transform="rotate(-90 2.36084 13.4148)" fill="#6236FF"/>
<rect x="2.36084" y="35.1155" width="12.6258" height="38.5574" rx="6.31292" transform="rotate(-90 2.36084 35.1155)" fill="#6236FF"/>
<rect x="64.918" y="0.789062" width="18.0984" height="56.0272" rx="9.04918" fill="#6236FF"/>
<rect x="67.2788" y="13.4148" width="12.6259" height="38.5574" rx="6.31293" transform="rotate(-90 67.2788 13.4148)" fill="#6236FF"/>
<rect x="67.2788" y="35.1155" width="12.6258" height="38.5574" rx="6.31292" transform="rotate(-90 67.2788 35.1155)" fill="#6236FF"/>
<rect x="45.2461" y="19.728" width="15.3443" height="37.0884" rx="7.67213" fill="#6236FF"/>
<ellipse cx="52.9181" cy="10.0611" rx="8.06557" ry="8.08844" fill="#F8CA00"/>
<ellipse cx="139.082" cy="29" rx="28.918" ry="29" fill="#F8CA00"/>
<path d="M168 29C168 45.0163 155.053 58 139.082 58C123.111 58 110.164 45.0163 110.164 29C110.164 12.9837 123.111 0 139.082 0C155.053 0 168 12.9837 168 29ZM126.916 29C126.916 35.7384 132.363 41.201 139.082 41.201C145.801 41.201 151.249 35.7384 151.249 29C151.249 22.2616 145.801 16.799 139.082 16.799C132.363 16.799 126.916 22.2616 126.916 29Z" fill="#6236FF"/>
</svg>
