<svg width="37" height="28" viewBox="0 0 37 28" fill="none" xmlns="http://www.w3.org/2000/svg">
<path d="M14.9896 17.2165C12.446 19.5217 11.0638 22.6211 11.0625 25.6623C11.0519 26.2871 11.1429 26.9078 11.3304 27.5L2.31406 27.5L2.314 27.5L2.30334 27.4997C2.29235 27.4993 2.2739 27.4985 2.24908 27.4967C2.19926 27.4931 2.12479 27.4857 2.03409 27.4705C1.85035 27.4396 1.61292 27.3787 1.38146 27.2619C1.15206 27.1462 0.937213 26.9802 0.778496 26.74C0.621702 26.5027 0.5 26.1634 0.5 25.6667C0.5 24.6184 1.03611 22.3998 2.69357 20.4487C4.33053 18.5217 7.08048 16.8333 11.5625 16.8333V16.8334L11.5684 16.8333C12.7211 16.8198 13.87 16.9487 14.9896 17.2165ZM16.1891 27.5L16.189 27.5L16.1783 27.4997C16.1673 27.4993 16.1489 27.4985 16.1241 27.4967C16.0743 27.4931 15.9998 27.4857 15.9091 27.4705C15.7254 27.4396 15.4879 27.3787 15.2565 27.2619C15.0271 27.1462 14.8122 26.9802 14.6535 26.74C14.4967 26.5027 14.375 26.1634 14.375 25.6667C14.375 24.6184 14.9111 22.3998 16.5686 20.4487C18.2055 18.5217 20.9555 16.8333 25.4375 16.8333C29.9195 16.8333 32.6695 18.5217 34.3064 20.4487C35.9639 22.3998 36.5 24.6184 36.5 25.6667C36.5 26.1634 36.3783 26.5027 36.2215 26.74C36.0628 26.9802 35.8479 27.1462 35.6185 27.2619C35.3871 27.3787 35.1496 27.4396 34.9659 27.4705C34.8752 27.4857 34.8007 27.4931 34.7509 27.4967C34.7261 27.4985 34.7076 27.4993 34.6967 27.4997L34.686 27.5L34.6859 27.5H16.1891ZM29.9879 11.5978C28.7803 12.8163 27.1434 13.5 25.4375 13.5C23.7316 13.5 22.0947 12.8163 20.8871 11.5978C19.6793 10.3791 19 8.72535 19 7C19 5.27465 19.6793 3.62087 20.8871 2.40222C22.0947 1.18372 23.7316 0.5 25.4375 0.5C27.1434 0.5 28.7803 1.18372 29.9879 2.40222C31.1957 3.62087 31.875 5.27465 31.875 7C31.875 8.72535 31.1957 10.3791 29.9879 11.5978ZM14.1391 11.9395C13.1483 12.9392 11.8055 13.5 10.4062 13.5C9.00703 13.5 7.6642 12.9392 6.67342 11.9395C5.6825 10.9396 5.125 9.58259 5.125 8.16667C5.125 6.75074 5.6825 5.3937 6.67342 4.39384C7.6642 3.39414 9.00703 2.83333 10.4062 2.83333C11.8055 2.83333 13.1483 3.39414 14.1391 4.39384C15.13 5.3937 15.6875 6.75074 15.6875 8.16667C15.6875 9.58259 15.13 10.9396 14.1391 11.9395Z" fill="#C9C9C9" stroke="#C9C9C9"/>
</svg>
