<svg width="28" height="28" viewBox="0 0 28 28" fill="none" xmlns="http://www.w3.org/2000/svg">
<path d="M14.2 15.8352V16.1211L14.4464 16.2661L19.6073 19.3027L19.0821 20.158L13.1 16.5937V9.03625H14.2V15.8352ZM20.4618 2.06604L21.6205 0.701264L27.2922 5.4275L26.1335 6.79228L20.4618 2.06604ZM0.708176 5.41409L6.37762 0.701999L7.52566 2.06473L1.86657 6.77846L0.708176 5.41409ZM1.9 15.4876C1.9 8.85738 7.31485 3.47517 14 3.47517C20.6852 3.47517 26.1 8.85738 26.1 15.4876C26.1 22.1178 20.6852 27.5 14 27.5C7.30121 27.5 1.9 22.1182 1.9 15.4876ZM3.7 15.4876C3.7 21.1474 8.30915 25.7195 14 25.7195C19.6908 25.7195 24.3 21.1474 24.3 15.4876C24.3 9.82783 19.6908 5.25571 14 5.25571C8.30915 5.25571 3.7 9.82783 3.7 15.4876Z" fill="#C9C9C9" stroke="#C9C9C9"/>
</svg>
